{
  "version": "1.1.6",
  "modules": [
    {
      "id": 1,
      "plugin": "Core",
      "version": "1.1.6",
      "model": "AudioInterface",
      "params": [],
      "leftModuleId": 29,
      "data": {
        "audio": {
          "driver": 6,
          "deviceName": "Headphones (AP-11 Stereo)",
          "offset": 0,
          "maxChannels": 8,
          "sampleRate": 48000,
          "blockSize": 256
        }
      },
      "pos": [
        79,
        0
      ]
    },
    {
      "id": 2,
      "plugin": "Fundamental",
      "version": "1.4.0",
      "model": "VCMixer",
      "params": [
        {
          "id": 0,
          "value": 0.990000308
        },
        {
          "id": 1,
          "value": 0.831558764
        },
        {
          "id": 2,
          "value": 1.00974941
        },
        {
          "id": 3,
          "value": 0.834537208
        },
        {
          "id": 4,
          "value": 0.372089654
        }
      ],
      "leftModuleId": 27,
      "rightModuleId": 30,
      "pos": [
        44,
        0
      ]
    },
    {
      "id": 4,
      "plugin": "Fundamental",
      "version": "1.4.0",
      "model": "VCF",
      "params": [
        {
          "id": 0,
          "value": 0.619499922
        },
        {
          "id": 1,
          "value": 0.212499738
        },
        {
          "id": 2,
          "value": 0.80550158
        },
        {
          "id": 3,
          "value": 1.0
        },
        {
          "id": 4,
          "value": 0.194499895
        }
      ],
      "leftModuleId": 32,
      "rightModuleId": 27,
      "pos": [
        26,
        0
      ]
    },
    {
      "id": 25,
      "plugin": "Befaco",
      "version": "1.0.0",
      "model": "Rampage",
      "params": [
        {
          "id": 0,
          "value": 0.0
        },
        {
          "id": 1,
          "value": 0.0
        },
        {
          "id": 2,
          "value": -0.649000287
        },
        {
          "id": 3,
          "value": -0.0819997638
        },
        {
          "id": 4,
          "value": 0.0
        },
        {
          "id": 5,
          "value": 0.0
        },
        {
          "id": 6,
          "value": 0.714000285
        },
        {
          "id": 7,
          "value": 0.609000981
        },
        {
          "id": 8,
          "value": 0.631000102
        },
        {
          "id": 9,
          "value": 1.0
        },
        {
          "id": 10,
          "value": 0.0
        },
        {
          "id": 11,
          "value": 0.0
        },
        {
          "id": 12,
          "value": 0.489000857
        }
      ],
      "rightModuleId": 32,
      "pos": [
        0,
        0
      ]
    },
    {
      "id": 27,
      "plugin": "Fundamental",
      "version": "1.4.0",
      "model": "LFO",
      "params": [
        {
          "id": 0,
          "value": 1.0
        },
        {
          "id": 1,
          "value": 1.0
        },
        {
          "id": 2,
          "value": -2.49200797
        },
        {
          "id": 3,
          "value": 0.174000025
        },
        {
          "id": 4,
          "value": 0.311999798
        },
        {
          "id": 5,
          "value": 0.4122895
        },
        {
          "id": 6,
          "value": 0.829500258
        }
      ],
      "leftModuleId": 4,
      "rightModuleId": 2,
      "pos": [
        34,
        0
      ]
    },
    {
      "id": 29,
      "plugin": "VCV-Recorder",
      "version": "1.0.1",
      "model": "Recorder",
      "params": [
        {
          "id": 0,
          "value": 0.996999621
        },
        {
          "id": 1,
          "value": 0.0
        }
      ],
      "rightModuleId": 1,
      "data": {
        "format": "wav",
        "path": "/Users/magfoto/Library/Mobile Documents/com~apple~CloudDocs/York U - PhD Study/_courses/DIGM 6020 - Vertical Studio Lab II/gitShow2/recording.wav",
        "incrementPath": false,
        "sampleRate": 44100,
        "depth": 16,
        "bitRate": 320000
      },
      "pos": [
        74,
        0
      ]
    },
    {
      "id": 30,
      "plugin": "Fundamental",
      "version": "1.4.0",
      "model": "Scope",
      "params": [
        {
          "id": 0,
          "value": 0.0
        },
        {
          "id": 1,
          "value": 0.0
        },
        {
          "id": 2,
          "value": 0.0
        },
        {
          "id": 3,
          "value": 0.0
        },
        {
          "id": 4,
          "value": 14.0
        },
        {
          "id": 5,
          "value": 0.0
        },
        {
          "id": 6,
          "value": 0.0
        },
        {
          "id": 7,
          "value": 0.0
        }
      ],
      "leftModuleId": 2,
      "data": {
        "lissajous": 0,
        "external": 0
      },
      "pos": [
        54,
        0
      ]
    },
    {
      "id": 40,
      "plugin": "Fundamental",
      "version": "1.4.0",
      "model": "Random",
      "params": [
        {
          "id": 0,
          "value": 0.481780618
        },
        {
          "id": 1,
          "value": 0.457000136
        },
        {
          "id": 2,
          "value": 1.0
        },
        {
          "id": 3,
          "value": 1.0
        }
      ],
      "leftModuleId": 73,
      "rightModuleId": 75,
      "pos": [
        29,
        1
      ]
    },
    {
      "id": 54,
      "plugin": "Autodafe-DrumKit",
      "version": "1.0.0",
      "model": "DrumsMixer",
      "params": [
        {
          "id": 0,
          "value": 0.172499999
        },
        {
          "id": 1,
          "value": 0.919499815
        },
        {
          "id": 2,
          "value": 1.0
        },
        {
          "id": 3,
          "value": 0.477000028
        },
        {
          "id": 4,
          "value": 0.0
        },
        {
          "id": 5,
          "value": 0.0
        },
        {
          "id": 6,
          "value": 0.0
        },
        {
          "id": 7,
          "value": 0.0
        },
        {
          "id": 8,
          "value": 0.0
        },
        {
          "id": 9,
          "value": 0.983000338
        },
        {
          "id": 10,
          "value": 0.863999844
        },
        {
          "id": 11,
          "value": 0.0
        },
        {
          "id": 12,
          "value": 0.0
        },
        {
          "id": 13,
          "value": 0.0
        },
        {
          "id": 14,
          "value": 0.0
        },
        {
          "id": 15,
          "value": 0.0
        },
        {
          "id": 16,
          "value": 0.0
        },
        {
          "id": 17,
          "value": 0.0
        },
        {
          "id": 18,
          "value": 0.0
        },
        {
          "id": 19,
          "value": 0.0
        },
        {
          "id": 20,
          "value": 0.0
        },
        {
          "id": 21,
          "value": 0.0
        },
        {
          "id": 22,
          "value": 0.0
        },
        {
          "id": 23,
          "value": 0.0
        },
        {
          "id": 24,
          "value": 0.0
        }
      ],
      "leftModuleId": 78,
      "data": {
        "autodafeDrumMixerMutes": [
          0,
          0,
          0,
          0,
          0,
          0,
          0,
          0
        ]
      },
      "pos": [
        52,
        1
      ]
    },
    {
      "id": 55,
      "plugin": "Core",
      "version": "1.1.6",
      "model": "MIDIToCVInterface",
      "params": [],
      "rightModuleId": 68,
      "data": {
        "channels": 1,
        "polyMode": 0,
        "clockDivision": 24,
        "lastPitch": 8192,
        "lastMod": 0,
        "midi": {
          "driver": -11,
          "deviceName": "QWERTY keyboard (US)",
          "channel": -1
        }
      },
      "pos": [
        0,
        1
      ]
    },
    {
      "id": 68,
      "plugin": "DrumKit",
      "version": "1.1.3",
      "model": "SyntheticBassDrum",
      "params": [
        {
          "id": 0,
          "value": -4.98500013
        },
        {
          "id": 1,
          "value": 0.859099925
        },
        {
          "id": 2,
          "value": -1.15500021
        },
        {
          "id": 3,
          "value": 0.774500072
        },
        {
          "id": 4,
          "value": 5.76499701
        },
        {
          "id": 5,
          "value": 1.18624973
        },
        {
          "id": 6,
          "value": 0.0
        },
        {
          "id": 7,
          "value": 1.0
        }
      ],
      "leftModuleId": 55,
      "rightModuleId": 73,
      "pos": [
        8,
        1
      ]
    },
    {
      "id": 73,
      "plugin": "TinyTricks",
      "version": "1.5.0",
      "model": "RW",
      "params": [
        {
          "id": 0,
          "value": 3.1599977
        },
        {
          "id": 1,
          "value": 3.21500087
        },
        {
          "id": 2,
          "value": 4.66833353
        },
        {
          "id": 3,
          "value": 2.81500125
        },
        {
          "id": 4,
          "value": 1.68500078
        },
        {
          "id": 5,
          "value": 4.56166744
        },
        {
          "id": 6,
          "value": 3.58857179
        },
        {
          "id": 7,
          "value": 8.01499939
        },
        {
          "id": 8,
          "value": 3.72111106
        },
        {
          "id": 9,
          "value": 10.0
        },
        {
          "id": 10,
          "value": 0.992499948
        },
        {
          "id": 11,
          "value": 0.0
        }
      ],
      "leftModuleId": 68,
      "rightModuleId": 40,
      "data": {
        "isLiniearMode": true,
        "skin": 0,
        "forcebright": false
      },
      "pos": [
        17,
        1
      ]
    },
    {
      "id": 32,
      "plugin": "Befaco",
      "version": "1.0.0",
      "model": "SpringReverb",
      "params": [
        {
          "id": 0,
          "value": 0.667500019
        },
        {
          "id": 1,
          "value": 0.303000063
        },
        {
          "id": 2,
          "value": 0.876000106
        },
        {
          "id": 3,
          "value": 0.331499785
        }
      ],
      "leftModuleId": 25,
      "rightModuleId": 4,
      "pos": [
        18,
        0
      ]
    },
    {
      "id": 75,
      "plugin": "Fundamental",
      "version": "1.4.0",
      "model": "Random",
      "params": [
        {
          "id": 0,
          "value": 10.9657841
        },
        {
          "id": 1,
          "value": 0.345999897
        },
        {
          "id": 2,
          "value": 1.0
        },
        {
          "id": 3,
          "value": 1.0
        }
      ],
      "leftModuleId": 40,
      "rightModuleId": 77,
      "pos": [
        34,
        1
      ]
    },
    {
      "id": 77,
      "plugin": "Alikins",
      "version": "1.0.1",
      "model": "IdleSwitch",
      "params": [
        {
          "id": 0,
          "value": 3.52000117
        }
      ],
      "leftModuleId": 75,
      "rightModuleId": 78,
      "pos": [
        39,
        1
      ]
    },
    {
      "id": 78,
      "plugin": "SynthKit",
      "version": "1.0.1",
      "model": "8-StepSequencer",
      "params": [
        {
          "id": 0,
          "value": 6.0
        },
        {
          "id": 1,
          "value": 6.0
        },
        {
          "id": 2,
          "value": 6.0
        },
        {
          "id": 3,
          "value": 2.0
        },
        {
          "id": 4,
          "value": 1.0
        },
        {
          "id": 5,
          "value": 0.0
        },
        {
          "id": 6,
          "value": 2.0
        },
        {
          "id": 7,
          "value": 0.0
        },
        {
          "id": 8,
          "value": 10.0
        },
        {
          "id": 9,
          "value": 6.0
        },
        {
          "id": 10,
          "value": 0.0
        },
        {
          "id": 11,
          "value": 3.0
        },
        {
          "id": 12,
          "value": 6.0
        },
        {
          "id": 13,
          "value": 4.0
        },
        {
          "id": 14,
          "value": 0.0
        },
        {
          "id": 15,
          "value": 8.0
        }
      ],
      "leftModuleId": 77,
      "rightModuleId": 54,
      "pos": [
        47,
        1
      ]
    }
  ],
  "cables": [
    {
      "id": 509,
      "outputModuleId": 2,
      "outputId": 0,
      "inputModuleId": 1,
      "inputId": 0,
      "color": "#c91847"
    },
    {
      "id": 511,
      "outputModuleId": 2,
      "outputId": 0,
      "inputModuleId": 1,
      "inputId": 1,
      "color": "#c9b70e"
    },
    {
      "id": 521,
      "outputModuleId": 27,
      "outputId": 2,
      "inputModuleId": 4,
      "inputId": 1,
      "color": "#0986ad"
    },
    {
      "id": 523,
      "outputModuleId": 2,
      "outputId": 1,
      "inputModuleId": 30,
      "inputId": 0,
      "color": "#0c8e15"
    },
    {
      "id": 510,
      "outputModuleId": 4,
      "outputId": 0,
      "inputModuleId": 2,
      "inputId": 1,
      "color": "#0986ad"
    },
    {
      "id": 516,
      "outputModuleId": 27,
      "outputId": 0,
      "inputModuleId": 40,
      "inputId": 0,
      "color": "#c9b70e"
    },
    {
      "id": 716,
      "outputModuleId": 55,
      "outputId": 2,
      "inputModuleId": 68,
      "inputId": 1,
      "color": "#0c8e15"
    },
    {
      "id": 513,
      "outputModuleId": 2,
      "outputId": 1,
      "inputModuleId": 32,
      "inputId": 2,
      "color": "#0986ad"
    },
    {
      "id": 518,
      "outputModuleId": 25,
      "outputId": 9,
      "inputModuleId": 32,
      "inputId": 0,
      "color": "#0986ad"
    },
    {
      "id": 514,
      "outputModuleId": 32,
      "outputId": 0,
      "inputModuleId": 2,
      "inputId": 2,
      "color": "#c9b70e"
    },
    {
      "id": 515,
      "outputModuleId": 40,
      "outputId": 0,
      "inputModuleId": 25,
      "inputId": 3,
      "color": "#0986ad"
    },
    {
      "id": 771,
      "outputModuleId": 4,
      "outputId": 1,
      "inputModuleId": 32,
      "inputId": 3,
      "color": "#0986ad"
    },
    {
      "id": 776,
      "outputModuleId": 40,
      "outputId": 2,
      "inputModuleId": 73,
      "inputId": 4,
      "color": "#0986ad"
    },
    {
      "id": 777,
      "outputModuleId": 40,
      "outputId": 1,
      "inputModuleId": 73,
      "inputId": 6,
      "color": "#c9b70e"
    },
    {
      "id": 778,
      "outputModuleId": 40,
      "outputId": 3,
      "inputModuleId": 73,
      "inputId": 8,
      "color": "#0c8e15"
    },
    {
      "id": 783,
      "outputModuleId": 55,
      "outputId": 2,
      "inputModuleId": 73,
      "inputId": 11,
      "color": "#0986ad"
    },
    {
      "id": 784,
      "outputModuleId": 55,
      "outputId": 0,
      "inputModuleId": 40,
      "inputId": 1,
      "color": "#c9b70e"
    },
    {
      "id": 531,
      "outputModuleId": 2,
      "outputId": 2,
      "inputModuleId": 29,
      "inputId": 3,
      "color": "#0986ad"
    },
    {
      "id": 533,
      "outputModuleId": 2,
      "outputId": 0,
      "inputModuleId": 29,
      "inputId": 2,
      "color": "#0c8e15"
    },
    {
      "id": 797,
      "outputModuleId": 75,
      "outputId": 0,
      "inputModuleId": 54,
      "inputId": 3,
      "color": "#c9b70e"
    },
    {
      "id": 799,
      "outputModuleId": 75,
      "outputId": 2,
      "inputModuleId": 54,
      "inputId": 6,
      "color": "#c91847"
    },
    {
      "id": 801,
      "outputModuleId": 55,
      "outputId": 5,
      "inputModuleId": 75,
      "inputId": 0,
      "color": "#c9b70e"
    },
    {
      "id": 803,
      "outputModuleId": 55,
      "outputId": 4,
      "inputModuleId": 75,
      "inputId": 3,
      "color": "#c91847"
    },
    {
      "id": 804,
      "outputModuleId": 73,
      "outputId": 0,
      "inputModuleId": 75,
      "inputId": 1,
      "color": "#0986ad"
    },
    {
      "id": 759,
      "outputModuleId": 73,
      "outputId": 0,
      "inputModuleId": 2,
      "inputId": 5,
      "color": "#0c8e15"
    },
    {
      "id": 829,
      "outputModuleId": 77,
      "outputId": 1,
      "inputModuleId": 2,
      "inputId": 6,
      "color": "#0c8e15"
    },
    {
      "id": 828,
      "outputModuleId": 27,
      "outputId": 3,
      "inputModuleId": 77,
      "inputId": 2,
      "color": "#c9b70e"
    },
    {
      "id": 837,
      "outputModuleId": 77,
      "outputId": 6,
      "inputModuleId": 2,
      "inputId": 4,
      "color": "#c9b70e"
    },
    {
      "id": 768,
      "outputModuleId": 27,
      "outputId": 0,
      "inputModuleId": 73,
      "inputId": 1,
      "color": "#0986ad"
    },
    {
      "id": 769,
      "outputModuleId": 27,
      "outputId": 1,
      "inputModuleId": 73,
      "inputId": 3,
      "color": "#c9b70e"
    },
    {
      "id": 779,
      "outputModuleId": 27,
      "outputId": 2,
      "inputModuleId": 73,
      "inputId": 5,
      "color": "#0986ad"
    },
    {
      "id": 780,
      "outputModuleId": 27,
      "outputId": 3,
      "inputModuleId": 73,
      "inputId": 7,
      "color": "#c9b70e"
    },
    {
      "id": 702,
      "outputModuleId": 55,
      "outputId": 0,
      "inputModuleId": 4,
      "inputId": 2,
      "color": "#c91847"
    },
    {
      "id": 760,
      "outputModuleId": 55,
      "outputId": 0,
      "inputModuleId": 73,
      "inputId": 9,
      "color": "#c91847"
    },
    {
      "id": 841,
      "outputModuleId": 4,
      "outputId": 0,
      "inputModuleId": 27,
      "inputId": 1,
      "color": "#0c8e15"
    },
    {
      "id": 842,
      "outputModuleId": 55,
      "outputId": 6,
      "inputModuleId": 27,
      "inputId": 0,
      "color": "#c91847"
    },
    {
      "id": 833,
      "outputModuleId": 77,
      "outputId": 2,
      "inputModuleId": 27,
      "inputId": 2,
      "color": "#c91847"
    },
    {
      "id": 843,
      "outputModuleId": 27,
      "outputId": 2,
      "inputModuleId": 40,
      "inputId": 3,
      "color": "#0986ad"
    },
    {
      "id": 736,
      "outputModuleId": 40,
      "outputId": 1,
      "inputModuleId": 54,
      "inputId": 4,
      "color": "#0c8e15"
    },
    {
      "id": 714,
      "outputModuleId": 4,
      "outputId": 0,
      "inputModuleId": 68,
      "inputId": 3,
      "color": "#0986ad"
    },
    {
      "id": 723,
      "outputModuleId": 4,
      "outputId": 1,
      "inputModuleId": 77,
      "inputId": 1,
      "color": "#0c8e15"
    },
    {
      "id": 798,
      "outputModuleId": 27,
      "outputId": 0,
      "inputModuleId": 54,
      "inputId": 5,
      "color": "#0c8e15"
    },
    {
      "id": 844,
      "outputModuleId": 75,
      "outputId": 1,
      "inputModuleId": 27,
      "inputId": 3,
      "color": "#0986ad"
    },
    {
      "id": 715,
      "outputModuleId": 4,
      "outputId": 1,
      "inputModuleId": 68,
      "inputId": 2,
      "color": "#c9b70e"
    },
    {
      "id": 767,
      "outputModuleId": 4,
      "outputId": 1,
      "inputModuleId": 73,
      "inputId": 2,
      "color": "#c91847"
    },
    {
      "id": 846,
      "outputModuleId": 77,
      "outputId": 0,
      "inputModuleId": 54,
      "inputId": 0,
      "color": "#0c8e15"
    },
    {
      "id": 766,
      "outputModuleId": 4,
      "outputId": 0,
      "inputModuleId": 73,
      "inputId": 0,
      "color": "#c9b70e"
    },
    {
      "id": 845,
      "outputModuleId": 4,
      "outputId": 0,
      "inputModuleId": 75,
      "inputId": 2,
      "color": "#c9b70e"
    },
    {
      "id": 848,
      "outputModuleId": 78,
      "outputId": 0,
      "inputModuleId": 4,
      "inputId": 0,
      "color": "#c9b70e"
    },
    {
      "id": 849,
      "outputModuleId": 55,
      "outputId": 1,
      "inputModuleId": 4,
      "inputId": 3,
      "color": "#c91847"
    },
    {
      "id": 847,
      "outputModuleId": 27,
      "outputId": 0,
      "inputModuleId": 78,
      "inputId": 0,
      "color": "#0c8e15"
    },
    {
      "id": 703,
      "outputModuleId": 75,
      "outputId": 3,
      "inputModuleId": 54,
      "inputId": 1,
      "color": "#0986ad"
    },
    {
      "id": 850,
      "outputModuleId": 55,
      "outputId": 1,
      "inputModuleId": 78,
      "inputId": 1,
      "color": "#0986ad"
    }
  ]
}