{
  "version": "1.1.6",
  "modules": [
    {
      "id": 1,
      "plugin": "Core",
      "version": "1.1.6",
      "model": "AudioInterface",
      "params": [],
      "leftModuleId": 2,
      "rightModuleId": 8,
      "data": {
        "audio": {
          "driver": 5,
          "deviceName": "Apple Inc.: Built-in Output",
          "offset": 0,
          "maxChannels": 8,
          "sampleRate": 44100,
          "blockSize": 256
        }
      },
      "pos": [
        58,
        0
      ]
    },
    {
      "id": 2,
      "plugin": "Fundamental",
      "version": "1.4.0",
      "model": "VCMixer",
      "params": [
        {
          "id": 0,
          "value": 1.0
        },
        {
          "id": 1,
          "value": 1.0
        },
        {
          "id": 2,
          "value": 1.0
        },
        {
          "id": 3,
          "value": 1.0
        },
        {
          "id": 4,
          "value": 1.0
        }
      ],
      "leftModuleId": 7,
      "rightModuleId": 1,
      "pos": [
        48,
        0
      ]
    },
    {
      "id": 3,
      "plugin": "Fundamental",
      "version": "1.4.0",
      "model": "VCO",
      "params": [
        {
          "id": 0,
          "value": 1.0
        },
        {
          "id": 1,
          "value": 1.0
        },
        {
          "id": 2,
          "value": -54.0
        },
        {
          "id": 3,
          "value": 0.0
        },
        {
          "id": 4,
          "value": 0.0
        },
        {
          "id": 5,
          "value": 0.5
        },
        {
          "id": 6,
          "value": 0.0
        }
      ],
      "leftModuleId": 5,
      "rightModuleId": 4,
      "pos": [
        9,
        0
      ]
    },
    {
      "id": 4,
      "plugin": "Fundamental",
      "version": "1.4.0",
      "model": "VCF",
      "params": [
        {
          "id": 0,
          "value": 0.0
        },
        {
          "id": 1,
          "value": 0.343999922
        },
        {
          "id": 2,
          "value": 0.234000027
        },
        {
          "id": 3,
          "value": -0.146000043
        },
        {
          "id": 4,
          "value": 0.0
        }
      ],
      "leftModuleId": 3,
      "rightModuleId": 6,
      "pos": [
        19,
        0
      ]
    },
    {
      "id": 5,
      "plugin": "Core",
      "version": "1.1.6",
      "model": "MIDIToCVInterface",
      "params": [],
      "rightModuleId": 3,
      "data": {
        "channels": 1,
        "polyMode": 0,
        "clockDivision": 24,
        "lastPitch": 8192,
        "lastMod": 0,
        "midi": {
          "driver": -11,
          "deviceName": "QWERTY keyboard (US)",
          "channel": -1
        }
      },
      "pos": [
        1,
        0
      ]
    },
    {
      "id": 6,
      "plugin": "Fundamental",
      "version": "1.4.0",
      "model": "ADSR",
      "params": [
        {
          "id": 0,
          "value": 0.721500039
        },
        {
          "id": 1,
          "value": 0.356000364
        },
        {
          "id": 2,
          "value": 0.371000141
        },
        {
          "id": 3,
          "value": 0.569000185
        }
      ],
      "leftModuleId": 4,
      "rightModuleId": 7,
      "pos": [
        27,
        0
      ]
    },
    {
      "id": 7,
      "plugin": "Fundamental",
      "version": "1.4.0",
      "model": "Scope",
      "params": [
        {
          "id": 0,
          "value": 0.0
        },
        {
          "id": 1,
          "value": 0.0
        },
        {
          "id": 2,
          "value": 0.0
        },
        {
          "id": 3,
          "value": 0.0
        },
        {
          "id": 4,
          "value": 14.0
        },
        {
          "id": 5,
          "value": 0.0
        },
        {
          "id": 6,
          "value": 0.0
        },
        {
          "id": 7,
          "value": 0.0
        }
      ],
      "leftModuleId": 6,
      "rightModuleId": 2,
      "data": {
        "lissajous": 0,
        "external": 0
      },
      "pos": [
        35,
        0
      ]
    },
    {
      "id": 8,
      "plugin": "Core",
      "version": "1.1.6",
      "model": "Notes",
      "params": [],
      "leftModuleId": 1,
      "text": "Demo patch instructions:\n\n1. Choose an audio driver and device in the AUDIO-8 module.\n\n2. Use the QWERTY and ZXCVB rows of your keyboard to generate MIDI notes, which are converted to 1V/oct and GATE signals.\n\n3. Drag knobs up/down. Hold Ctrl (Cmd on Mac) while dragging to fine-tune. Right-click knobs to edit, or double-click to initialize.\n\n4. Drag ports to create and move cables. Stack multiple cables on outputs by holding Ctrl (Cmd on Mac) and dragging from an output.\n\n5. Right-click on an empty rack space to add new modules.",
      "pos": [
        68,
        0
      ]
    },
    {
      "id": 119,
      "plugin": "TinyTricks",
      "version": "1.5.0",
      "model": "SN8",
      "params": [
        {
          "id": 0,
          "value": 1.78821552
        },
        {
          "id": 1,
          "value": 2.98100042
        },
        {
          "id": 2,
          "value": 0.0
        },
        {
          "id": 3,
          "value": 5.49550152
        }
      ],
      "data": {
        "skin": 0,
        "forcebright": false
      },
      "pos": [
        36,
        1
      ]
    },
    {
      "id": 120,
      "plugin": "cf",
      "version": "1.1.1",
      "model": "PLAYER",
      "params": [
        {
          "id": 0,
          "value": 4.5749898
        },
        {
          "id": 1,
          "value": -2.74499559
        },
        {
          "id": 2,
          "value": 0.0
        },
        {
          "id": 3,
          "value": 0.0960002393
        },
        {
          "id": 4,
          "value": 0.0
        },
        {
          "id": 5,
          "value": 0.0
        },
        {
          "id": 6,
          "value": 0.0
        }
      ],
      "rightModuleId": 125,
      "data": {
        "lastPath": "/Users/lorenasalome/Documents/DigMediaYorkU/VSL/gitShow2/extensions/New Recording 23.wav",
        "oscstate": 0
      },
      "pos": [
        51,
        1
      ]
    },
    {
      "id": 121,
      "plugin": "Fundamental",
      "version": "1.4.0",
      "model": "LFO",
      "params": [
        {
          "id": 0,
          "value": 1.0
        },
        {
          "id": 1,
          "value": 1.0
        },
        {
          "id": 2,
          "value": -8.0
        },
        {
          "id": 3,
          "value": 0.405000031
        },
        {
          "id": 4,
          "value": 0.655499995
        },
        {
          "id": 5,
          "value": 0.5
        },
        {
          "id": 6,
          "value": 0.0
        }
      ],
      "pos": [
        11,
        1
      ]
    },
    {
      "id": 123,
      "plugin": "Fundamental",
      "version": "1.4.0",
      "model": "LFO",
      "params": [
        {
          "id": 0,
          "value": 1.0
        },
        {
          "id": 1,
          "value": 1.0
        },
        {
          "id": 2,
          "value": -8.0
        },
        {
          "id": 3,
          "value": 0.610499978
        },
        {
          "id": 4,
          "value": 0.0
        },
        {
          "id": 5,
          "value": 0.5
        },
        {
          "id": 6,
          "value": 0.0
        }
      ],
      "pos": [
        0,
        1
      ]
    },
    {
      "id": 125,
      "plugin": "Fundamental",
      "version": "1.4.0",
      "model": "Delay",
      "params": [
        {
          "id": 0,
          "value": 0.183000028
        },
        {
          "id": 1,
          "value": 0.933999836
        },
        {
          "id": 2,
          "value": 0.395500779
        },
        {
          "id": 3,
          "value": 0.535999656
        }
      ],
      "leftModuleId": 120,
      "rightModuleId": 126,
      "pos": [
        60,
        1
      ]
    },
    {
      "id": 126,
      "plugin": "NYSTHI",
      "version": "1.0.9",
      "model": "DissonantVerb",
      "params": [
        {
          "id": 0,
          "value": 0.699999988
        },
        {
          "id": 1,
          "value": 0.359000057
        },
        {
          "id": 2,
          "value": 0.5
        },
        {
          "id": 3,
          "value": 0.200000003
        },
        {
          "id": 4,
          "value": 0.200000003
        },
        {
          "id": 5,
          "value": 0.5
        },
        {
          "id": 6,
          "value": 0.5
        },
        {
          "id": 7,
          "value": 0.349499881
        },
        {
          "id": 8,
          "value": 0.140009612
        },
        {
          "id": 9,
          "value": 0.0299999174
        },
        {
          "id": 10,
          "value": 0.374499977
        },
        {
          "id": 11,
          "value": 0.36800009
        },
        {
          "id": 12,
          "value": 0.0
        }
      ],
      "leftModuleId": 125,
      "pos": [
        68,
        1
      ]
    },
    {
      "id": 127,
      "plugin": "VCV-Recorder",
      "version": "1.0.1",
      "model": "Recorder",
      "params": [
        {
          "id": 0,
          "value": 1.0
        },
        {
          "id": 1,
          "value": 0.0
        }
      ],
      "data": {
        "format": "wav",
        "path": "/Users/lorenasalome/Documents/DigMediaYorkU/VSL/gitShow2/recording.wav",
        "incrementPath": false,
        "sampleRate": 44100,
        "depth": 16,
        "bitRate": 320000
      },
      "pos": [
        93,
        0
      ]
    },
    {
      "id": 132,
      "plugin": "NYSTHI",
      "version": "1.0.9",
      "model": "DYNAMO",
      "params": [
        {
          "id": 0,
          "value": 0.00249700015
        },
        {
          "id": 1,
          "value": 0.0
        },
        {
          "id": 2,
          "value": 0.288441986
        },
        {
          "id": 3,
          "value": 3.36620045
        },
        {
          "id": 4,
          "value": 0.0
        },
        {
          "id": 5,
          "value": 0.859369874
        },
        {
          "id": 6,
          "value": 5.79520035
        },
        {
          "id": 7,
          "value": 1.0
        },
        {
          "id": 8,
          "value": 0.0
        },
        {
          "id": 9,
          "value": 0.0
        },
        {
          "id": 10,
          "value": 0.0
        },
        {
          "id": 11,
          "value": 0.0
        },
        {
          "id": 12,
          "value": 0.0
        }
      ],
      "data": {
        "m_bypass": false,
        "m_show_info": false,
        "m_limiting": false,
        "m_ducking": false,
        "m_brickwallducking": true
      },
      "pos": [
        77,
        1
      ]
    }
  ],
  "cables": [
    {
      "id": 1148,
      "outputModuleId": 5,
      "outputId": 0,
      "inputModuleId": 3,
      "inputId": 0,
      "color": "#c91847"
    },
    {
      "id": 1149,
      "outputModuleId": 3,
      "outputId": 2,
      "inputModuleId": 4,
      "inputId": 3,
      "color": "#0c8e15"
    },
    {
      "id": 1150,
      "outputModuleId": 2,
      "outputId": 0,
      "inputModuleId": 1,
      "inputId": 0,
      "color": "#0986ad"
    },
    {
      "id": 1151,
      "outputModuleId": 2,
      "outputId": 0,
      "inputModuleId": 1,
      "inputId": 1,
      "color": "#c9b70e"
    },
    {
      "id": 1153,
      "outputModuleId": 5,
      "outputId": 1,
      "inputModuleId": 6,
      "inputId": 4,
      "color": "#c9b70e"
    },
    {
      "id": 1155,
      "outputModuleId": 4,
      "outputId": 0,
      "inputModuleId": 2,
      "inputId": 1,
      "color": "#0986ad"
    },
    {
      "id": 1156,
      "outputModuleId": 2,
      "outputId": 1,
      "inputModuleId": 7,
      "inputId": 0,
      "color": "#c9b70e"
    },
    {
      "id": 1157,
      "outputModuleId": 5,
      "outputId": 6,
      "inputModuleId": 6,
      "inputId": 5,
      "color": "#c91847"
    },
    {
      "id": 1162,
      "outputModuleId": 119,
      "outputId": 5,
      "inputModuleId": 120,
      "inputId": 1,
      "color": "#0c8e15"
    },
    {
      "id": 1168,
      "outputModuleId": 3,
      "outputId": 3,
      "inputModuleId": 119,
      "inputId": 1,
      "color": "#0986ad"
    },
    {
      "id": 1172,
      "outputModuleId": 121,
      "outputId": 1,
      "inputModuleId": 6,
      "inputId": 3,
      "color": "#0986ad"
    },
    {
      "id": 1154,
      "outputModuleId": 6,
      "outputId": 0,
      "inputModuleId": 2,
      "inputId": 2,
      "color": "#0c8e15"
    },
    {
      "id": 1179,
      "outputModuleId": 121,
      "outputId": 3,
      "inputModuleId": 120,
      "inputId": 0,
      "color": "#c91847"
    },
    {
      "id": 1152,
      "outputModuleId": 6,
      "outputId": 0,
      "inputModuleId": 4,
      "inputId": 0,
      "color": "#c91847"
    },
    {
      "id": 1171,
      "outputModuleId": 123,
      "outputId": 0,
      "inputModuleId": 120,
      "inputId": 5,
      "color": "#c91847"
    },
    {
      "id": 1196,
      "outputModuleId": 120,
      "outputId": 1,
      "inputModuleId": 125,
      "inputId": 4,
      "color": "#c91847"
    },
    {
      "id": 1201,
      "outputModuleId": 2,
      "outputId": 0,
      "inputModuleId": 127,
      "inputId": 2,
      "color": "#0986ad"
    },
    {
      "id": 1202,
      "outputModuleId": 2,
      "outputId": 0,
      "inputModuleId": 127,
      "inputId": 3,
      "color": "#c9b70e"
    },
    {
      "id": 1197,
      "outputModuleId": 125,
      "outputId": 0,
      "inputModuleId": 126,
      "inputId": 0,
      "color": "#0986ad"
    },
    {
      "id": 1214,
      "outputModuleId": 126,
      "outputId": 0,
      "inputModuleId": 2,
      "inputId": 3,
      "color": "#0986ad"
    },
    {
      "id": 1215,
      "outputModuleId": 126,
      "outputId": 1,
      "inputModuleId": 2,
      "inputId": 4,
      "color": "#c9b70e"
    },
    {
      "id": 1212,
      "outputModuleId": 132,
      "outputId": 0,
      "inputModuleId": 123,
      "inputId": 0,
      "color": "#0c8e15"
    },
    {
      "id": 1213,
      "outputModuleId": 132,
      "outputId": 1,
      "inputModuleId": 123,
      "inputId": 1,
      "color": "#c91847"
    },
    {
      "id": 1216,
      "outputModuleId": 121,
      "outputId": 0,
      "inputModuleId": 120,
      "inputId": 6,
      "color": "#0c8e15"
    }
  ]
}