{
  "version": "1.1.6",
  "modules": [
    {
      "id": 1,
      "plugin": "Core",
      "version": "1.1.6",
      "model": "AudioInterface",
      "params": [],
      "leftModuleId": 30,
      "rightModuleId": 29,
      "data": {
        "audio": {
          "driver": 6,
          "deviceName": "Speakers (Realtek(R) Audio)",
          "offset": 0,
          "maxChannels": 8,
          "sampleRate": 48000,
          "blockSize": 256
        }
      },
      "pos": [
        80,
        0
      ]
    },
    {
      "id": 2,
      "plugin": "Fundamental",
      "version": "1.4.0",
      "model": "VCMixer",
      "params": [
        {
          "id": 0,
          "value": 0.759000421
        },
        {
          "id": 1,
          "value": 0.776404083
        },
        {
          "id": 2,
          "value": 0.695793986
        },
        {
          "id": 3,
          "value": 0.834537208
        },
        {
          "id": 4,
          "value": 0.372089654
        }
      ],
      "leftModuleId": 27,
      "rightModuleId": 30,
      "pos": [
        57,
        0
      ]
    },
    {
      "id": 4,
      "plugin": "Fundamental",
      "version": "1.4.0",
      "model": "VCF",
      "params": [
        {
          "id": 0,
          "value": 0.664499879
        },
        {
          "id": 1,
          "value": 0.207999617
        },
        {
          "id": 2,
          "value": 0.357001394
        },
        {
          "id": 3,
          "value": 0.584000289
        },
        {
          "id": 4,
          "value": 0.210000128
        }
      ],
      "leftModuleId": 40,
      "rightModuleId": 27,
      "pos": [
        39,
        0
      ]
    },
    {
      "id": 8,
      "plugin": "Core",
      "version": "1.1.6",
      "model": "Notes",
      "params": [],
      "leftModuleId": 29,
      "text": "Ring the Alarm\n--------------\n\nSiren sound is the base of this patch.  With MIDI-CV module part of the flow, use keyboard to alter the siren and create your own alarm sounds.\n\nIncrease the frequency of the LFO-1 module to shorten the alarm time span.  An identifiable range for this would be keeping the knob between 9 o'clock (0.047663 Hz) and 12 o'clock (2.0125 Hz).\n\nTurn on the sequencer module (SEQ-3) for further play.  Change the STEPS knob, to give a \"gear changing\" effect to the alarm sounds.\n\n\n",
      "pos": [
        95,
        0
      ]
    },
    {
      "id": 25,
      "plugin": "Befaco",
      "version": "1.0.0",
      "model": "Rampage",
      "params": [
        {
          "id": 0,
          "value": 0.0
        },
        {
          "id": 1,
          "value": 0.0
        },
        {
          "id": 2,
          "value": -0.649000287
        },
        {
          "id": 3,
          "value": -0.0819997638
        },
        {
          "id": 4,
          "value": 0.0
        },
        {
          "id": 5,
          "value": 0.0
        },
        {
          "id": 6,
          "value": 0.618000269
        },
        {
          "id": 7,
          "value": 0.453000963
        },
        {
          "id": 8,
          "value": 0.526000023
        },
        {
          "id": 9,
          "value": 1.0
        },
        {
          "id": 10,
          "value": 0.0
        },
        {
          "id": 11,
          "value": 0.0
        },
        {
          "id": 12,
          "value": 0.489000857
        }
      ],
      "rightModuleId": 32,
      "pos": [
        8,
        0
      ]
    },
    {
      "id": 27,
      "plugin": "Fundamental",
      "version": "1.4.0",
      "model": "LFO",
      "params": [
        {
          "id": 0,
          "value": 0.0
        },
        {
          "id": 1,
          "value": 0.0
        },
        {
          "id": 2,
          "value": -1.11499882
        },
        {
          "id": 3,
          "value": 0.368499875
        },
        {
          "id": 4,
          "value": 0.0584999993
        },
        {
          "id": 5,
          "value": 0.205019534
        },
        {
          "id": 6,
          "value": 0.616500139
        }
      ],
      "leftModuleId": 4,
      "rightModuleId": 2,
      "pos": [
        47,
        0
      ]
    },
    {
      "id": 29,
      "plugin": "VCV-Recorder",
      "version": "1.0.1",
      "model": "Recorder",
      "params": [
        {
          "id": 0,
          "value": 1.02999973
        },
        {
          "id": 1,
          "value": 0.0
        }
      ],
      "leftModuleId": 1,
      "rightModuleId": 8,
      "data": {
        "format": "wav",
        "path": "/Users/magfoto/Library/Mobile Documents/com~apple~CloudDocs/York U - PhD Study/_courses/DIGM 6020 - Vertical Studio Lab II/gitShow2/recording.wav",
        "incrementPath": false,
        "sampleRate": 44100,
        "depth": 16,
        "bitRate": 320000
      },
      "pos": [
        90,
        0
      ]
    },
    {
      "id": 30,
      "plugin": "Fundamental",
      "version": "1.4.0",
      "model": "Scope",
      "params": [
        {
          "id": 0,
          "value": 0.0
        },
        {
          "id": 1,
          "value": 0.0
        },
        {
          "id": 2,
          "value": 0.0
        },
        {
          "id": 3,
          "value": 0.0
        },
        {
          "id": 4,
          "value": 14.0
        },
        {
          "id": 5,
          "value": 0.0
        },
        {
          "id": 6,
          "value": 0.0
        },
        {
          "id": 7,
          "value": 0.0
        }
      ],
      "leftModuleId": 2,
      "rightModuleId": 1,
      "data": {
        "lissajous": 0,
        "external": 0
      },
      "pos": [
        67,
        0
      ]
    },
    {
      "id": 32,
      "plugin": "Befaco",
      "version": "1.0.0",
      "model": "SpringReverb",
      "params": [
        {
          "id": 0,
          "value": 0.728500903
        },
        {
          "id": 1,
          "value": 0.897000074
        },
        {
          "id": 2,
          "value": 0.774000108
        },
        {
          "id": 3,
          "value": 0.512999833
        }
      ],
      "leftModuleId": 25,
      "rightModuleId": 40,
      "pos": [
        26,
        0
      ]
    },
    {
      "id": 40,
      "plugin": "Fundamental",
      "version": "1.4.0",
      "model": "Random",
      "params": [
        {
          "id": 0,
          "value": 6.04268789
        },
        {
          "id": 1,
          "value": 0.838000119
        },
        {
          "id": 2,
          "value": 1.0
        },
        {
          "id": 3,
          "value": 1.0
        }
      ],
      "leftModuleId": 32,
      "rightModuleId": 4,
      "pos": [
        34,
        0
      ]
    },
    {
      "id": 43,
      "plugin": "Fundamental",
      "version": "1.4.0",
      "model": "SEQ3",
      "params": [
        {
          "id": 0,
          "value": 3.77600002
        },
        {
          "id": 1,
          "value": 0.0
        },
        {
          "id": 2,
          "value": 0.0
        },
        {
          "id": 3,
          "value": 7.0
        },
        {
          "id": 4,
          "value": 2.44499969
        },
        {
          "id": 5,
          "value": 1.03000116
        },
        {
          "id": 6,
          "value": 2.1600008
        },
        {
          "id": 7,
          "value": 0.0
        },
        {
          "id": 8,
          "value": 2.89499903
        },
        {
          "id": 9,
          "value": 4.33499956
        },
        {
          "id": 10,
          "value": 3.49500179
        },
        {
          "id": 11,
          "value": 3.52500033
        },
        {
          "id": 12,
          "value": 0.0
        },
        {
          "id": 13,
          "value": 0.0
        },
        {
          "id": 14,
          "value": 0.0
        },
        {
          "id": 15,
          "value": 0.0
        },
        {
          "id": 16,
          "value": 0.0
        },
        {
          "id": 17,
          "value": 0.0
        },
        {
          "id": 18,
          "value": 0.0
        },
        {
          "id": 19,
          "value": 0.0
        },
        {
          "id": 20,
          "value": 0.0
        },
        {
          "id": 21,
          "value": 0.0
        },
        {
          "id": 22,
          "value": 0.0
        },
        {
          "id": 23,
          "value": 0.0
        },
        {
          "id": 24,
          "value": 0.0
        },
        {
          "id": 25,
          "value": 0.0
        },
        {
          "id": 26,
          "value": 0.0
        },
        {
          "id": 27,
          "value": 0.0
        },
        {
          "id": 28,
          "value": 0.0
        },
        {
          "id": 29,
          "value": 0.0
        },
        {
          "id": 30,
          "value": 0.0
        },
        {
          "id": 31,
          "value": 0.0
        },
        {
          "id": 32,
          "value": 0.0
        },
        {
          "id": 33,
          "value": 0.0
        },
        {
          "id": 34,
          "value": 0.0
        },
        {
          "id": 35,
          "value": 0.0
        }
      ],
      "data": {
        "running": false,
        "gates": [
          1,
          1,
          1,
          1,
          1,
          1,
          1,
          1
        ]
      },
      "pos": [
        66,
        1
      ]
    },
    {
      "id": 54,
      "plugin": "Autodafe-DrumKit",
      "version": "1.0.0",
      "model": "DrumsMixer",
      "params": [
        {
          "id": 0,
          "value": 0.334499985
        },
        {
          "id": 1,
          "value": 0.193499967
        },
        {
          "id": 2,
          "value": 0.121500015
        },
        {
          "id": 3,
          "value": 0.477000028
        },
        {
          "id": 4,
          "value": 0.0
        },
        {
          "id": 5,
          "value": 0.0
        },
        {
          "id": 6,
          "value": 0.0
        },
        {
          "id": 7,
          "value": 0.0
        },
        {
          "id": 8,
          "value": 0.0
        },
        {
          "id": 9,
          "value": 0.728000045
        },
        {
          "id": 10,
          "value": -0.819000065
        },
        {
          "id": 11,
          "value": 0.0
        },
        {
          "id": 12,
          "value": 0.0
        },
        {
          "id": 13,
          "value": 0.0
        },
        {
          "id": 14,
          "value": 0.0
        },
        {
          "id": 15,
          "value": 0.0
        },
        {
          "id": 16,
          "value": 0.0
        },
        {
          "id": 17,
          "value": 0.0
        },
        {
          "id": 18,
          "value": 0.0
        },
        {
          "id": 19,
          "value": 0.0
        },
        {
          "id": 20,
          "value": 0.0
        },
        {
          "id": 21,
          "value": 0.0
        },
        {
          "id": 22,
          "value": 0.0
        },
        {
          "id": 23,
          "value": 0.0
        },
        {
          "id": 24,
          "value": 0.0
        }
      ],
      "data": {
        "autodafeDrumMixerMutes": [
          0,
          0,
          0,
          0,
          0,
          0,
          0,
          0
        ]
      },
      "pos": [
        26,
        2
      ]
    },
    {
      "id": 55,
      "plugin": "Core",
      "version": "1.1.6",
      "model": "MIDIToCVInterface",
      "params": [],
      "rightModuleId": 63,
      "data": {
        "channels": 1,
        "polyMode": 0,
        "clockDivision": 24,
        "lastPitch": 8192,
        "lastMod": 0,
        "midi": {
          "driver": -11,
          "deviceName": "QWERTY keyboard (US)",
          "channel": -1
        }
      },
      "pos": [
        0,
        1
      ]
    },
    {
      "id": 63,
      "plugin": "Fundamental",
      "version": "1.4.0",
      "model": "VCF",
      "params": [
        {
          "id": 0,
          "value": 0.636999726
        },
        {
          "id": 1,
          "value": 0.472500205
        },
        {
          "id": 2,
          "value": 0.415499747
        },
        {
          "id": 3,
          "value": 0.158000261
        },
        {
          "id": 4,
          "value": 0.282000124
        }
      ],
      "leftModuleId": 55,
      "rightModuleId": 64,
      "pos": [
        8,
        1
      ]
    },
    {
      "id": 64,
      "plugin": "Fundamental",
      "version": "1.4.0",
      "model": "LFO",
      "params": [
        {
          "id": 0,
          "value": 0.0
        },
        {
          "id": 1,
          "value": 0.0
        },
        {
          "id": 2,
          "value": -1.73599899
        },
        {
          "id": 3,
          "value": 0.866499841
        },
        {
          "id": 4,
          "value": 0.0584999993
        },
        {
          "id": 5,
          "value": 0.205019534
        },
        {
          "id": 6,
          "value": 0.0210001711
        }
      ],
      "leftModuleId": 63,
      "pos": [
        16,
        1
      ]
    },
    {
      "id": 68,
      "plugin": "DrumKit",
      "version": "1.1.3",
      "model": "SyntheticBassDrum",
      "params": [
        {
          "id": 0,
          "value": 0.779999971
        },
        {
          "id": 1,
          "value": 0.5
        },
        {
          "id": 2,
          "value": -1.47000003
        },
        {
          "id": 3,
          "value": 0.621500015
        },
        {
          "id": 4,
          "value": 6.5899992
        },
        {
          "id": 5,
          "value": 1.71500003
        },
        {
          "id": 6,
          "value": 0.0
        },
        {
          "id": 7,
          "value": 1.0
        }
      ],
      "pos": [
        0,
        2
      ]
    }
  ],
  "cables": [
    {
      "id": 509,
      "outputModuleId": 2,
      "outputId": 0,
      "inputModuleId": 1,
      "inputId": 0,
      "color": "#c91847"
    },
    {
      "id": 511,
      "outputModuleId": 2,
      "outputId": 0,
      "inputModuleId": 1,
      "inputId": 1,
      "color": "#c9b70e"
    },
    {
      "id": 508,
      "outputModuleId": 27,
      "outputId": 0,
      "inputModuleId": 4,
      "inputId": 0,
      "color": "#0c8e15"
    },
    {
      "id": 521,
      "outputModuleId": 27,
      "outputId": 2,
      "inputModuleId": 4,
      "inputId": 1,
      "color": "#0986ad"
    },
    {
      "id": 523,
      "outputModuleId": 2,
      "outputId": 1,
      "inputModuleId": 30,
      "inputId": 0,
      "color": "#0c8e15"
    },
    {
      "id": 510,
      "outputModuleId": 4,
      "outputId": 0,
      "inputModuleId": 2,
      "inputId": 1,
      "color": "#0986ad"
    },
    {
      "id": 518,
      "outputModuleId": 25,
      "outputId": 9,
      "inputModuleId": 32,
      "inputId": 0,
      "color": "#0986ad"
    },
    {
      "id": 513,
      "outputModuleId": 2,
      "outputId": 1,
      "inputModuleId": 32,
      "inputId": 2,
      "color": "#0986ad"
    },
    {
      "id": 531,
      "outputModuleId": 2,
      "outputId": 2,
      "inputModuleId": 29,
      "inputId": 3,
      "color": "#0986ad"
    },
    {
      "id": 527,
      "outputModuleId": 43,
      "outputId": 1,
      "inputModuleId": 2,
      "inputId": 3,
      "color": "#0c8e15"
    },
    {
      "id": 533,
      "outputModuleId": 2,
      "outputId": 0,
      "inputModuleId": 29,
      "inputId": 2,
      "color": "#0c8e15"
    },
    {
      "id": 514,
      "outputModuleId": 32,
      "outputId": 0,
      "inputModuleId": 2,
      "inputId": 2,
      "color": "#c9b70e"
    },
    {
      "id": 516,
      "outputModuleId": 27,
      "outputId": 0,
      "inputModuleId": 40,
      "inputId": 0,
      "color": "#c9b70e"
    },
    {
      "id": 670,
      "outputModuleId": 54,
      "outputId": 0,
      "inputModuleId": 43,
      "inputId": 0,
      "color": "#0986ad"
    },
    {
      "id": 671,
      "outputModuleId": 54,
      "outputId": 1,
      "inputModuleId": 43,
      "inputId": 3,
      "color": "#c9b70e"
    },
    {
      "id": 522,
      "outputModuleId": 4,
      "outputId": 1,
      "inputModuleId": 32,
      "inputId": 3,
      "color": "#c9b70e"
    },
    {
      "id": 684,
      "outputModuleId": 4,
      "outputId": 1,
      "inputModuleId": 43,
      "inputId": 1,
      "color": "#0986ad"
    },
    {
      "id": 515,
      "outputModuleId": 40,
      "outputId": 0,
      "inputModuleId": 25,
      "inputId": 3,
      "color": "#0986ad"
    },
    {
      "id": 703,
      "outputModuleId": 68,
      "outputId": 0,
      "inputModuleId": 54,
      "inputId": 1,
      "color": "#0986ad"
    },
    {
      "id": 702,
      "outputModuleId": 55,
      "outputId": 0,
      "inputModuleId": 63,
      "inputId": 2,
      "color": "#c91847"
    },
    {
      "id": 713,
      "outputModuleId": 55,
      "outputId": 1,
      "inputModuleId": 63,
      "inputId": 3,
      "color": "#c91847"
    },
    {
      "id": 711,
      "outputModuleId": 63,
      "outputId": 0,
      "inputModuleId": 4,
      "inputId": 3,
      "color": "#c9b70e"
    },
    {
      "id": 685,
      "outputModuleId": 63,
      "outputId": 1,
      "inputModuleId": 43,
      "inputId": 2,
      "color": "#c9b70e"
    },
    {
      "id": 714,
      "outputModuleId": 63,
      "outputId": 0,
      "inputModuleId": 68,
      "inputId": 3,
      "color": "#0986ad"
    },
    {
      "id": 724,
      "outputModuleId": 63,
      "outputId": 0,
      "inputModuleId": 63,
      "inputId": 0,
      "color": "#c91847"
    },
    {
      "id": 716,
      "outputModuleId": 55,
      "outputId": 2,
      "inputModuleId": 68,
      "inputId": 1,
      "color": "#0c8e15"
    },
    {
      "id": 723,
      "outputModuleId": 63,
      "outputId": 1,
      "inputModuleId": 63,
      "inputId": 1,
      "color": "#0c8e15"
    },
    {
      "id": 715,
      "outputModuleId": 63,
      "outputId": 1,
      "inputModuleId": 68,
      "inputId": 2,
      "color": "#c9b70e"
    }
  ]
}