{
  "version": "1.1.6",
  "modules": [
    {
      "id": 1,
      "plugin": "Core",
      "version": "1.1.6",
      "model": "AudioInterface",
      "params": [],
      "data": {
        "audio": {
          "driver": 5,
          "deviceName": "Apple Inc.: Built-in Output",
          "offset": 0,
          "maxChannels": 8,
          "sampleRate": 48000,
          "blockSize": 256
        }
      },
      "pos": [
        48,
        0
      ]
    },
    {
      "id": 2,
      "plugin": "Fundamental",
      "version": "1.4.0",
      "model": "VCMixer",
      "params": [
        {
          "id": 0,
          "value": 0.720000207
        },
        {
          "id": 1,
          "value": 0.776404083
        },
        {
          "id": 2,
          "value": 0.695793986
        },
        {
          "id": 3,
          "value": 0.834537208
        },
        {
          "id": 4,
          "value": 0.372089654
        }
      ],
      "pos": [
        37,
        0
      ]
    },
    {
      "id": 4,
      "plugin": "Fundamental",
      "version": "1.4.0",
      "model": "VCF",
      "params": [
        {
          "id": 0,
          "value": 0.500498116
        },
        {
          "id": 1,
          "value": 0.207999617
        },
        {
          "id": 2,
          "value": 0.799500465
        },
        {
          "id": 3,
          "value": 0.584000289
        },
        {
          "id": 4,
          "value": 0.186000273
        }
      ],
      "pos": [
        26,
        1
      ]
    },
    {
      "id": 8,
      "plugin": "Core",
      "version": "1.1.6",
      "model": "Notes",
      "params": [],
      "text": "Ring the Alarm\n--------------\n\nSiren sound is the base of this patch.  With MIDI-CV module part of the flow, use keyboard to alter the siren and create your own alarm sounds.\n\nIncrease the frequency of the LFO-1 module to shorten the alarm time span.  An identifiable range for this would be keeping the knob between 9 o'clock (0.047663 Hz) and 12 o'clock (2.0125 Hz).\n\nTurn on the sequencer module (SEQ-3) for further play.  Change the STEPS knob, to give a \"gear changing\" effect to the alarm sounds.\n\n\n",
      "pos": [
        65,
        0
      ]
    },
    {
      "id": 25,
      "plugin": "Befaco",
      "version": "1.0.0",
      "model": "Rampage",
      "params": [
        {
          "id": 0,
          "value": 0.0
        },
        {
          "id": 1,
          "value": 0.0
        },
        {
          "id": 2,
          "value": -0.649000287
        },
        {
          "id": 3,
          "value": -0.0819997638
        },
        {
          "id": 4,
          "value": 0.0
        },
        {
          "id": 5,
          "value": 0.0
        },
        {
          "id": 6,
          "value": 0.618000269
        },
        {
          "id": 7,
          "value": 0.453000963
        },
        {
          "id": 8,
          "value": 0.247000083
        },
        {
          "id": 9,
          "value": 1.0
        },
        {
          "id": 10,
          "value": 0.0
        },
        {
          "id": 11,
          "value": 0.0
        },
        {
          "id": 12,
          "value": 0.489000857
        }
      ],
      "pos": [
        5,
        1
      ]
    },
    {
      "id": 27,
      "plugin": "Fundamental",
      "version": "1.4.0",
      "model": "LFO",
      "params": [
        {
          "id": 0,
          "value": 0.0
        },
        {
          "id": 1,
          "value": 0.0
        },
        {
          "id": 2,
          "value": -4.39099979
        },
        {
          "id": 3,
          "value": 0.48999992
        },
        {
          "id": 4,
          "value": 0.597000062
        },
        {
          "id": 5,
          "value": 0.205019534
        },
        {
          "id": 6,
          "value": 0.69600004
        }
      ],
      "pos": [
        9,
        0
      ]
    },
    {
      "id": 29,
      "plugin": "VCV-Recorder",
      "version": "1.0.1",
      "model": "Recorder",
      "params": [
        {
          "id": 0,
          "value": 1.02999973
        },
        {
          "id": 1,
          "value": 0.0
        }
      ],
      "data": {
        "format": "wav",
        "path": "/Users/magfoto/Library/Mobile Documents/com~apple~CloudDocs/York U - PhD Study/_courses/DIGM 6020 - Vertical Studio Lab II/gitShow2/recording.wav",
        "incrementPath": false,
        "sampleRate": 44100,
        "depth": 16,
        "bitRate": 320000
      },
      "pos": [
        59,
        0
      ]
    },
    {
      "id": 30,
      "plugin": "Fundamental",
      "version": "1.4.0",
      "model": "Scope",
      "params": [
        {
          "id": 0,
          "value": 0.0
        },
        {
          "id": 1,
          "value": 0.0
        },
        {
          "id": 2,
          "value": 0.0
        },
        {
          "id": 3,
          "value": 0.0
        },
        {
          "id": 4,
          "value": 14.0
        },
        {
          "id": 5,
          "value": 0.0
        },
        {
          "id": 6,
          "value": 0.0
        },
        {
          "id": 7,
          "value": 0.0
        }
      ],
      "data": {
        "lissajous": 0,
        "external": 0
      },
      "pos": [
        37,
        1
      ]
    },
    {
      "id": 32,
      "plugin": "Befaco",
      "version": "1.0.0",
      "model": "SpringReverb",
      "params": [
        {
          "id": 0,
          "value": 0.784000874
        },
        {
          "id": 1,
          "value": 0.897000074
        },
        {
          "id": 2,
          "value": 0.93299973
        },
        {
          "id": 3,
          "value": 0.490499943
        }
      ],
      "pos": [
        27,
        0
      ]
    },
    {
      "id": 40,
      "plugin": "Fundamental",
      "version": "1.4.0",
      "model": "Random",
      "params": [
        {
          "id": 0,
          "value": -1.61103487
        },
        {
          "id": 1,
          "value": 0.838000119
        },
        {
          "id": 2,
          "value": 1.0
        },
        {
          "id": 3,
          "value": 1.0
        }
      ],
      "pos": [
        20,
        0
      ]
    },
    {
      "id": 43,
      "plugin": "Fundamental",
      "version": "1.4.0",
      "model": "SEQ3",
      "params": [
        {
          "id": 0,
          "value": 1.97600043
        },
        {
          "id": 1,
          "value": 0.0
        },
        {
          "id": 2,
          "value": 0.0
        },
        {
          "id": 3,
          "value": 4.0
        },
        {
          "id": 4,
          "value": 3.11999893
        },
        {
          "id": 5,
          "value": 1.37500083
        },
        {
          "id": 6,
          "value": 2.1600008
        },
        {
          "id": 7,
          "value": 0.0
        },
        {
          "id": 8,
          "value": 2.62500048
        },
        {
          "id": 9,
          "value": 4.33499956
        },
        {
          "id": 10,
          "value": 3.0150001
        },
        {
          "id": 11,
          "value": 3.52500033
        },
        {
          "id": 12,
          "value": 0.0
        },
        {
          "id": 13,
          "value": 0.0
        },
        {
          "id": 14,
          "value": 0.0
        },
        {
          "id": 15,
          "value": 0.0
        },
        {
          "id": 16,
          "value": 0.0
        },
        {
          "id": 17,
          "value": 0.0
        },
        {
          "id": 18,
          "value": 0.0
        },
        {
          "id": 19,
          "value": 0.0
        },
        {
          "id": 20,
          "value": 0.0
        },
        {
          "id": 21,
          "value": 0.0
        },
        {
          "id": 22,
          "value": 0.0
        },
        {
          "id": 23,
          "value": 0.0
        },
        {
          "id": 24,
          "value": 0.0
        },
        {
          "id": 25,
          "value": 0.0
        },
        {
          "id": 26,
          "value": 0.0
        },
        {
          "id": 27,
          "value": 0.0
        },
        {
          "id": 28,
          "value": 0.0
        },
        {
          "id": 29,
          "value": 0.0
        },
        {
          "id": 30,
          "value": 0.0
        },
        {
          "id": 31,
          "value": 0.0
        },
        {
          "id": 32,
          "value": 0.0
        },
        {
          "id": 33,
          "value": 0.0
        },
        {
          "id": 34,
          "value": 0.0
        },
        {
          "id": 35,
          "value": 0.0
        }
      ],
      "data": {
        "running": false,
        "gates": [
          1,
          1,
          1,
          1,
          1,
          1,
          1,
          1
        ]
      },
      "pos": [
        53,
        1
      ]
    },
    {
      "id": 47,
      "plugin": "Core",
      "version": "1.1.6",
      "model": "MIDIToCVInterface",
      "params": [],
      "data": {
        "channels": 1,
        "polyMode": 0,
        "clockDivision": 24,
        "lastPitch": 8192,
        "lastMod": 0,
        "midi": {
          "driver": -11,
          "deviceName": "QWERTY keyboard (US)",
          "channel": -1
        }
      },
      "pos": [
        0,
        0
      ]
    }
  ],
  "cables": [
    {
      "id": 509,
      "outputModuleId": 2,
      "outputId": 0,
      "inputModuleId": 1,
      "inputId": 0,
      "color": "#c91847"
    },
    {
      "id": 484,
      "outputModuleId": 47,
      "outputId": 1,
      "inputModuleId": 4,
      "inputId": 3,
      "color": "#c91847"
    },
    {
      "id": 511,
      "outputModuleId": 2,
      "outputId": 0,
      "inputModuleId": 1,
      "inputId": 1,
      "color": "#c9b70e"
    },
    {
      "id": 508,
      "outputModuleId": 27,
      "outputId": 0,
      "inputModuleId": 4,
      "inputId": 0,
      "color": "#0c8e15"
    },
    {
      "id": 512,
      "outputModuleId": 47,
      "outputId": 1,
      "inputModuleId": 25,
      "inputId": 0,
      "color": "#0c8e15"
    },
    {
      "id": 516,
      "outputModuleId": 27,
      "outputId": 0,
      "inputModuleId": 40,
      "inputId": 0,
      "color": "#c9b70e"
    },
    {
      "id": 515,
      "outputModuleId": 40,
      "outputId": 0,
      "inputModuleId": 25,
      "inputId": 3,
      "color": "#0986ad"
    },
    {
      "id": 521,
      "outputModuleId": 27,
      "outputId": 2,
      "inputModuleId": 4,
      "inputId": 1,
      "color": "#0986ad"
    },
    {
      "id": 523,
      "outputModuleId": 2,
      "outputId": 1,
      "inputModuleId": 30,
      "inputId": 0,
      "color": "#0c8e15"
    },
    {
      "id": 507,
      "outputModuleId": 47,
      "outputId": 0,
      "inputModuleId": 27,
      "inputId": 0,
      "color": "#c9b70e"
    },
    {
      "id": 510,
      "outputModuleId": 4,
      "outputId": 0,
      "inputModuleId": 2,
      "inputId": 1,
      "color": "#0986ad"
    },
    {
      "id": 518,
      "outputModuleId": 25,
      "outputId": 9,
      "inputModuleId": 32,
      "inputId": 0,
      "color": "#0986ad"
    },
    {
      "id": 513,
      "outputModuleId": 2,
      "outputId": 1,
      "inputModuleId": 32,
      "inputId": 2,
      "color": "#0986ad"
    },
    {
      "id": 514,
      "outputModuleId": 32,
      "outputId": 0,
      "inputModuleId": 2,
      "inputId": 2,
      "color": "#c9b70e"
    },
    {
      "id": 522,
      "outputModuleId": 4,
      "outputId": 1,
      "inputModuleId": 32,
      "inputId": 3,
      "color": "#c9b70e"
    },
    {
      "id": 527,
      "outputModuleId": 43,
      "outputId": 1,
      "inputModuleId": 2,
      "inputId": 3,
      "color": "#0c8e15"
    },
    {
      "id": 529,
      "outputModuleId": 4,
      "outputId": 1,
      "inputModuleId": 43,
      "inputId": 1,
      "color": "#0986ad"
    },
    {
      "id": 530,
      "outputModuleId": 2,
      "outputId": 1,
      "inputModuleId": 29,
      "inputId": 2,
      "color": "#c91847"
    },
    {
      "id": 531,
      "outputModuleId": 2,
      "outputId": 2,
      "inputModuleId": 29,
      "inputId": 3,
      "color": "#0986ad"
    }
  ]
}